<svg xmlns="http://www.w3.org/2000/svg" viewBox="0 0 24 24"><path d="M 12 2 C 6.4889971 2 2 6.4889971 2 12 C 2 17.511003 6.4889971 22 12 22 C 17.511003 22 22 17.511003 22 12 C 22 6.4889971 17.511003 2 12 2 z M 12 4 C 16.430123 4 20 7.5698774 20 12 C 20 16.430123 16.430123 20 12 20 C 7.5698774 20 4 16.430123 4 12 C 4 7.5698774 7.5698774 4 12 4 z M 9 8 L 9 16 L 14.361328 16 L 14.361328 14.675781 L 10.648438 14.675781 L 10.648438 12.533203 L 13.8125 12.533203 L 13.814453 12.533203 L 13.814453 11.242188 L 10.648438 11.242188 L 10.648438 9.3359375 L 14.351562 9.3359375 L 14.351562 8 L 9 8 z"></path></svg>
